<?xml version="1.0" standalone="no"?>
<!DOCTYPE svg PUBLIC "-//W3C//DTD SVG 20010904//EN"
 "http://www.w3.org/TR/2001/REC-SVG-20010904/DTD/svg10.dtd">
<svg version="1.0" xmlns="http://www.w3.org/2000/svg"
 width="1280.000000pt" height="1195.000000pt" viewBox="0 0 1280.000000 1195.000000"
 preserveAspectRatio="xMidYMid meet">
<g transform="translate(0.000000,1195.000000) scale(0.100000,-0.100000)"
fill="#000000" stroke="none">
<path d="M10870 11884 c-2006 -341 -3698 -701 -5834 -1241 l-539 -137 7 -360
c3 -199 11 -563 16 -811 5 -247 14 -670 20 -940 34 -1629 49 -2358 60 -2865 5
-245 14 -704 20 -1020 22 -1228 31 -1718 50 -2625 11 -517 20 -985 20 -1040
l0 -99 253 -253 252 -252 335 84 c1714 428 4101 823 6160 1020 251 24 226 14
234 93 3 37 20 247 36 467 16 220 39 519 50 665 11 146 42 567 70 935 28 369
59 789 70 935 11 146 34 443 50 660 16 217 39 517 50 665 11 149 34 449 50
668 17 218 43 576 60 795 16 218 39 519 50 667 11 149 34 449 50 668 17 218
43 576 60 795 16 218 41 550 55 737 14 187 32 427 40 533 9 106 13 197 10 202
-4 6 -16 10 -27 10 -18 0 -20 4 -15 35 7 40 -10 50 -66 40 -29 -6 -35 -4 -40
14 -3 13 -13 21 -25 21 -12 0 -23 4 -27 10 -3 5 -13 6 -22 3 -9 -4 -19 0 -24
10 -7 11 -19 14 -48 10 -36 -5 -40 -3 -43 18 -2 20 -8 23 -30 21 -20 -3 -28 1
-28 12 0 10 -9 16 -25 16 -16 0 -25 6 -25 16 0 12 -7 14 -30 9 -24 -5 -31 -3
-37 12 -10 27 -33 40 -59 35 -19 -3 -24 0 -24 17 0 18 -5 21 -32 19 -27 -3
-34 1 -36 18 -4 25 -34 42 -82 46 -30 3 -35 7 -38 29 -2 21 -8 26 -22 22 -12
-3 -20 2 -25 16 -3 12 -13 21 -21 21 -8 0 -14 5 -14 10 0 6 -12 16 -27 23 -16
6 -32 17 -36 25 -5 8 -17 10 -28 7 -15 -5 -22 -1 -26 14 -3 12 -13 21 -24 21
-11 0 -19 7 -19 15 0 8 -4 15 -10 15 -5 0 -28 18 -51 40 -23 22 -48 40 -56 40
-7 0 -16 7 -19 15 -4 8 -13 15 -20 15 -8 0 -17 7 -20 15 -4 8 -15 15 -25 15
-11 0 -22 7 -25 15 -4 8 -15 15 -26 15 -11 0 -22 8 -25 20 -4 14 -14 20 -34
20 -26 0 -29 3 -29 34 0 30 -3 35 -27 38 l-28 3 4 108 c3 86 1 107 -10 106 -8
-1 -156 -26 -329 -55z"/>
</g>
</svg>
