<?xml version="1.0" encoding="UTF-8" standalone="no"?><svg height="660" viewBox="-300 -300 600 660" width="600" xmlns="http://www.w3.org/2000/svg" xmlns:xlink="http://www.w3.org/1999/xlink"><radialGradient id="a" cx="-80" cy="-80" gradientUnits="userSpaceOnUse" r="405"><stop offset="0" stop-color="#fff" stop-opacity=".31"/><stop offset=".19" stop-color="#fff" stop-opacity=".25"/><stop offset=".6" stop-color="#6b6b6b" stop-opacity=".125"/><stop offset="1" stop-opacity=".125"/></radialGradient><path d="m-298.5-298.50003h597v258.5433c0 286.24794-298.5 398.45673-298.5 398.45673s-298.5-112.20879-298.5-398.45673z" fill="#fff"/><g transform="translate(-300 -300.00003)"><path d="m1.5 1.500045h597v196.99998h-597z" fill="#2b5df2" stroke="#000" stroke-width="3"/><g id="b" stroke="#000" stroke-width="1.21894" transform="matrix(2.0513539 0 0 2.0505716 37.063861 7.5347)"><path d="m58.4045 30.002563c10.623589.254887 17.913809 18.078823-4.381231 26.779783 7.368673-14.435091-6.304863-9.001593-8.107633 1.487765h-5.281032c2.918357-21.305635 10.964057-28.430837 17.769896-28.267548zm-28.670445 32.879624c-2.689943 6.351212-6.01068 8.985609-9.238913 12.10643 3.618431.01653 7.22029-.678341 10.95801-3.813952.06366 9.674934 1.472102 12.982213 4.833195 16.232778 3.322964-3.148966 4.844408-6.547148 4.833199-16.232778 3.737717 3.135614 7.339689 3.830473 10.95812 3.813952-3.227999-3.120593-6.549187-5.756246-9.239024-12.10643zm6.552292-60.4961189c-10.503711 11.1508859-14.159534 23.8009959-6.200019 40.0840649 2.303855 4.713079 3.408414 10.026686 3.100009 15.799979h6.20002c-.308405-5.773293.796154-11.0869 3.100009-15.799979 7.959518-16.283067 4.303695-28.933179-6.200019-40.0840649zm-22.118147 27.6164959c-10.6235893.254887-17.9138081 18.078824 4.38123 26.779783-7.368672-14.435091 6.304863-9.001593 8.107633 1.487765h5.281032c-2.918357-21.305636-10.964056-28.430837-17.769895-28.267548z" fill="#fcef3c" fill-rule="evenodd" stroke="#000" stroke-width="1.21894"/><path d="m21.701165 58.195878h29.170365v4.760697h-29.170365z" fill="#fcef3c" stroke="#000" stroke-width="1.21894"/></g><use height="100%" transform="translate(188.5 -.000011)" width="100%" xlink:href="#b"/><use height="100%" transform="translate(377 -.000011)" width="100%" xlink:href="#b"/></g><path d="m1.5351562 264.21484c.2369852 23.02988 2.3974526 44.92689 6.1914063 65.71289h584.5468775c3.79395-20.786 5.95442-42.68301 6.1914-65.71289zm24.5957028 131.42774c9.056399 23.6557 20.211268 45.54098 32.794922 65.71484h482.148439c12.58365-20.17386 23.73852-42.05914 32.79492-65.71484zm83.388671 131.42969c24.2017 26.01243 49.96585 47.80908 74.47656 65.71289h232.00782c24.51071-17.90381 50.27486-39.70046 74.47656-65.71289z" fill="#e20909" stroke="#000" stroke-linecap="round" stroke-linejoin="round" stroke-width="3" transform="translate(-300 -300)"/><path d="m-298.5-298.50003h597v258.5433c0 286.24794-298.5 398.45673-298.5 398.45673s-298.5-112.20879-298.5-398.45673z" fill="url(#a)"/><path d="m-298.5-298.50001h597v258.502973c0 286.203287-298.5 398.394577-298.5 398.394577s-298.5-112.19129-298.5-398.394577z" fill="none" stroke="#000" stroke-width="3"/></svg>