<?xml version="1.0" encoding="UTF-8" standalone="no"?>
<svg
   xmlns:dc="http://purl.org/dc/elements/1.1/"
   xmlns:cc="http://creativecommons.org/ns#"
   xmlns:rdf="http://www.w3.org/1999/02/22-rdf-syntax-ns#"
   xmlns:svg="http://www.w3.org/2000/svg"
   xmlns="http://www.w3.org/2000/svg"
   xmlns:sodipodi="http://sodipodi.sourceforge.net/DTD/sodipodi-0.dtd"
   xmlns:inkscape="http://www.inkscape.org/namespaces/inkscape"
   class="site-header__main--logoDesktop"
   width="600"
   height="95"
   viewBox="0 0 600 95"
   version="1.1"
   id="svg2"
   inkscape:version="0.91 r13725"
   sodipodi:docname="Logo Auchan Drive.svg">
  <metadata
     id="metadata39">
    <rdf:RDF>
      <cc:Work
         rdf:about="">
        <dc:format>image/svg+xml</dc:format>
        <dc:type
           rdf:resource="http://purl.org/dc/dcmitype/StillImage" />
        <dc:title>00_BRANDING/Logo/AuchanDrive-Color 0</dc:title>
      </cc:Work>
    </rdf:RDF>
  </metadata>
  <sodipodi:namedview
     pagecolor="#ffffff"
     bordercolor="#666666"
     borderopacity="1"
     objecttolerance="10"
     gridtolerance="10"
     guidetolerance="10"
     inkscape:pageopacity="0"
     inkscape:pageshadow="2"
     inkscape:window-width="1440"
     inkscape:window-height="790"
     id="namedview37"
     showgrid="false"
     inkscape:zoom="1.5335716"
     inkscape:cx="85.064964"
     inkscape:cy="9.7396371"
     inkscape:window-x="0"
     inkscape:window-y="1"
     inkscape:window-maximized="1"
     inkscape:current-layer="svg2" />
  <!-- Generator: Sketch 50.2 (55047) - http://www.bohemiancoding.com/sketch -->
  <title
     id="title4">00_BRANDING/Logo/AuchanDrive-Color 0</title>
  <desc
     id="desc6">Created with Sketch.</desc>
  <defs
     id="defs8" />
  <g
     style="fill:none;fill-rule:evenodd;stroke:none;stroke-width:1"
     id="Clip-10"
     transform="translate(146.45221,78.47187)" />
  <g
     style="fill:none;fill-rule:evenodd;stroke:none;stroke-width:1"
     id="Clip-21"
     transform="translate(0,69.053666)" />
  <g
     id="g4272"
     transform="matrix(3.7844217,0,0,3.7844217,9.5949344e-5,0.010305)">
    <g
       id="g4239">
      <path
         style="fill:#e0001a;fill-rule:evenodd;stroke:none;stroke-width:1"
         inkscape:connector-curvature="0"
         id="Fill-1"
         d="m 108.8259,22.442548 c 0.71313,0 1.41972,-0.367665 2.12011,-1.103351 0.70004,-0.735508 1.26104,-1.695454 1.68299,-2.879838 0.42179,-1.184028 0.63285,-2.381739 0.63285,-3.592778 0,-0.816185 -0.18918,-1.471194 -0.56755,-1.964673 -0.37836,-0.4933 -0.95469,-0.740128 -1.72865,-0.740128 -0.7395,0 -1.4311,0.345452 -2.07462,1.03618 -0.64353,0.690905 -1.15698,1.637168 -1.53965,2.839321 -0.38267,1.202332 -0.57409,2.426876 -0.57409,3.673633 0,1.821267 0.68281,2.731634 2.04861,2.731634 m 1.74812,-12.8643771 c 1.55722,0 2.72246,0.7985921 3.49676,2.3952451 l 0.10441,0 c 0.11286,-1.309664 0.27396,-2.4309632 0.48278,-3.3640762 l 0.99157,-4.8175 3.04,0 -4.30552,20.9384432 -2.40078,0 0.24793,-2.368411 -0.0915,0 c -0.76534,0.950883 -1.50484,1.628105 -2.21797,2.031844 -0.71314,0.403739 -1.47004,0.605608 -2.27001,0.605608 -1.24399,0 -2.21798,-0.455272 -2.92267,-1.365817 -0.70452,-0.910367 -1.05687,-2.200128 -1.05687,-3.868749 0,-1.83886 0.31099,-3.556883 0.93299,-5.15389 0.62164,-1.596652 1.4547,-2.834702 2.49847,-3.713971 1.04377,-0.879091 2.2004,-1.3187261 3.4704,-1.3187261" />
      <path
         style="fill:#e0001a;fill-rule:evenodd;stroke:none;stroke-width:1"
         inkscape:connector-curvature="0"
         id="Fill-3"
         d="m 127.49435,9.5781531 c 0.53912,0 1.0088,0.053844 1.40904,0.1615311 l -0.66541,2.9470088 c -0.46968,-0.125635 -0.91317,-0.188541 -1.33082,-0.188541 -1.09598,0 -2.07445,0.506983 -2.93559,1.520595 -0.86114,1.013968 -1.46142,2.341579 -1.8005,3.983189 l -1.38302,6.72833 -3.07912,0 3.07912,-14.8828944 2.40078,0 -0.27395,2.7584674 0.11733,0 c 0.72192,-1.076518 1.44368,-1.850233 2.16577,-2.321143 0.72192,-0.4710878 1.48744,-0.7065429 2.29637,-0.7065429" />
      <path
         style="fill:#e0001a;fill-rule:evenodd;stroke:none;stroke-width:1"
         inkscape:connector-curvature="0"
         id="Fill-5"
         d="m 131.15431,6.1870667 c 0,-0.6098731 0.16954,-1.1033514 0.50879,-1.4802573 0.33943,-0.3767281 0.81772,-0.5650922 1.43524,-0.5650922 0.46106,0 0.83512,0.1190603 1.12216,0.3566478 0.28705,0.2377653 0.43057,0.5988556 0.43057,1.0832711 0,0.6370615 -0.17419,1.1392473 -0.52188,1.5070903 -0.34804,0.3680208 -0.80463,0.5517646 -1.37011,0.5517646 -0.46106,0 -0.84373,-0.1165725 -1.14818,-0.3500729 -0.30445,-0.2331449 -0.45659,-0.6008103 -0.45659,-1.1033514 z m -0.6132,18.5431993 -3.07912,0 3.07912,-14.8828944 3.06619,0 -3.06619,14.8828944 z" />
      <path
         style="fill:#e0001a;fill-rule:evenodd;stroke:none;stroke-width:1"
         inkscape:connector-curvature="0"
         id="Fill-7"
         d="m 136.5029,24.730194 -1.70918,-14.8828935 3.02691,0 0.71761,8.0470555 c 0.12182,1.426413 0.18264,2.758467 0.18264,3.996517 l 0.0913,0 c 0.24329,-0.663717 0.54791,-1.403846 0.91335,-2.220386 0.36527,-0.816185 0.64801,-1.408288 0.84804,-1.776131 l 4.05776,-8.0470555 3.26158,0 -7.80211,14.8828935 -3.58791,0 z" />
      <path
         d="m 7.4736975,2.5284322 c -0.8351222,0 -1.620106,0.385791 -2.3551238,1.1573729 C 4.3833836,4.457387 3.8551219,5.4754414 3.5334439,6.740324 l 0.3781913,0 c 1.6352681,0 2.9138821,-0.2398977 3.8360141,-0.7198706 C 8.6694367,5.5406581 9.1305028,4.8609481 9.1305028,3.9818565 9.1305028,3.524274 8.9914593,3.1676262 8.7130278,2.9119131 8.4345963,2.6563777 8.0216011,2.5284322 7.4736975,2.5284322 M 5.49039,15.527508 c -1.7136632,0 -3.0510303,-0.497921 -4.0119291,-1.493763 -0.96107108,-0.995664 -1.44177893,-2.386182 -1.44177893,-4.1713754 0,-1.7763087 0.33718468,-3.4291146 1.01120943,-4.958773 C 1.7217439,3.3741159 2.6352611,2.1920425 3.7877538,1.3577318 4.9402466,0.52342111 6.2297152,0.10635462 7.656332,0.10635462 c 1.4004278,0 2.489688,0.32519457 3.268297,0.97558368 0.778436,0.6505669 1.167827,1.5723069 1.167827,2.7652201 0,1.6329033 -0.724163,2.908981 -2.1724897,3.8284109 -1.4481539,0.9197854 -3.511924,1.3793226 -6.1907934,1.3793226 l -0.5611704,0 -0.026017,0.4170665 0,0.3904112 c 0,0.9956644 0.2455229,1.7761314 0.7372577,2.3414004 0.4912179,0.565093 1.2239959,0.847639 2.1983338,0.847639 0.6262986,0 1.2481174,-0.08512 1.8658012,-0.255713 C 8.5608896,12.625457 9.2916,12.333848 10.135165,11.921047 l 0,2.516437 C 9.3003873,14.832338 8.5326332,15.112574 7.8324193,15.278547 7.1322054,15.444521 6.351529,15.527508 5.49039,15.527508"
         id="Fill-9"
         mask="none"
         inkscape:connector-curvature="0"
         style="fill:#e0001a;fill-opacity:1;fill-rule:evenodd;stroke:none;stroke-width:1"
         transform="translate(146.45221,9.47187)" />
    </g>
    <g
       id="g4260">
      <path
         style="fill:#e0001a;fill-rule:evenodd;stroke:none;stroke-width:1"
         d="m 77.419922,9.5117188 c -4.686298,0 -7.289063,2.9609712 -7.289063,8.3554692 0,5.050644 1.814649,7.232421 5.322266,7.232421 2.145611,0 3.624719,-0.79162 4.441406,-2.007812 l 0.242188,1.609375 3.90625,0 0,-14.253906 C 82.492298,9.9486338 80.714235,9.5117187 77.419922,9.5117188 Z m -0.191406,3.8671872 c 0.876818,0 1.301047,0.06095 1.990234,0.216797 l 0,6.609375 c -0.51689,0.498809 -1.151218,1.029297 -2.300781,1.029297 -1.268793,0 -1.980469,-1.216129 -1.980469,-3.554687 0,-2.868466 0.780491,-4.300782 2.291016,-4.300782 z"
         id="path4255"
         inkscape:connector-curvature="0" />
      <path
         style="fill:#4a835b;fill-rule:evenodd;stroke:none;stroke-width:1"
         inkscape:connector-curvature="0"
         id="Fill-12"
         d="m 24.197248,6.3973059 -2.107017,0 -0.511549,0.6633614 c -0.09028,0.092938 -0.0603,0.1915627 0.02998,0.2223051 l 0.692116,0.3138217 1.956946,-0.941465 c 0.120435,-0.062196 0.08994,-0.2580232 -0.06048,-0.2580232" />
      <path
         style="fill:#ffffff;fill-rule:evenodd;stroke:none;stroke-width:1"
         inkscape:connector-curvature="0"
         id="Fill-14"
         d="m 20.030837,6.7279914 c -0.227431,-0.2345665 -0.597352,-0.2345665 -0.824612,0 -0.227259,0.2368767 -0.229499,0.6182251 0,0.852614 0.22726,0.2345666 0.597181,0.2345666 0.824612,0 0.229672,-0.2343889 0.229672,-0.6157373 0,-0.852614" />
      <path
         style="fill:#00985f;fill-rule:evenodd;stroke:none;stroke-width:1"
         inkscape:connector-curvature="0"
         id="Fill-16"
         d="m 20.030837,7.5806587 c -0.227431,0.2345666 -0.597352,0.2345666 -0.824612,0 -0.229499,-0.2345666 -0.227259,-0.6159149 0,-0.8526139 0.22726,-0.2320788 0.592529,-0.2345666 0.8222,-0.00249 -0.410927,-0.4191989 -1.074787,-0.4191989 -1.483475,0.00249 -0.411272,0.4238191 -0.411272,1.1108149 0,1.5348117 0.4111,0.4239969 1.074615,0.4239969 1.485887,0 0.4111,-0.4216867 0.4111,-1.1061946 0.0045,-1.5301915 0.225192,0.2368767 0.22278,0.6134271 -0.0045,0.8479937 m 4.181814,-1.1833173 -2.110462,0 -0.512066,0.6603405 c -0.08959,0.094537 -0.05979,0.1903188 0.02981,0.2212389 L 22.3136,7.5909654 24.272441,6.6541207 c 0.121814,-0.063973 0.08977,-0.2567793 -0.05979,-0.2567793 m -9.163256,13.3804236 1.71797,4.922878 1.267587,0 -1.814284,-5.202047 c -0.401796,0.118527 -0.801524,0.226925 -1.171273,0.279169 m 1.694882,-6.684436 c 0.14249,-0.222483 0.277915,-0.468067 0.406448,-0.698013 -0.05961,-0.03305 -0.112509,-0.07126 -0.172124,-0.0071 -2.682315,2.920532 -5.275209,3.249636 -7.2640296,3.249636 l -3.0431046,0 c -0.091662,0 -0.1674724,-0.08601 -0.1033781,-0.178413 C 8.9244187,12.100863 11.5404,9.4936203 13.460302,7.7787964 L 8.35963,12.206418 c -0.3928365,0.34101 -0.875095,0.588194 -1.538782,0.588194 l -6.41891421,0 c -0.18160075,0 -0.12181378,0.135764 -0.0918342,0.228169 0.45227889,1.430678 1.66042351,2.69485 3.76864621,2.69485 l -1.5065625,1.62082 c -0.059787,0.06149 -0.059787,0.254114 0.089594,0.254114 l 5.7276599,0 c 4.1383948,0 6.6830458,-1.89608 8.3548398,-4.499236 m -0.367508,3.96613 -2.592721,0 c -0.663687,0.355404 -0.874923,0.504673 -1.809805,0.876603 -0.06427,0.02843 -0.08942,0.04141 -0.05961,0.133632 l 2.317219,6.630949 1.265519,0 -2.124591,-6.041867 0.05755,0 c 1.382682,0 4.685093,-0.355581 6.47181,-3.332978 -0.535154,0.864698 -1.83496,1.733661 -3.525363,1.733661" />
      <path
         style="fill:#ffffff;fill-rule:evenodd;stroke:none;stroke-width:1"
         inkscape:connector-curvature="0"
         id="Fill-18"
         d="m 19.308501,6.7676368 c -0.192284,0.1990261 -0.192284,0.520489 0,0.7188044 0.191766,0.198493 0.50414,0.198493 0.697112,0 0.191594,-0.1983154 0.191594,-0.5197783 -6.89e-4,-0.7188044 -0.192283,-0.1977823 -0.504657,-0.1977823 -0.696423,0" />
      <path
         d="M 7.5465618,11.108451 10.853625,8.2778368 c 0.542046,-1.5205956 1.107006,-3.0259089 1.694883,-4.3238439 0.293938,0.691616 0.571853,1.3908732 0.863551,2.1274478 1.276891,-1.0871806 2.115115,-1.6741302 2.156466,-1.7025625 l 0.01844,-0.010662 C 16.11729,4.0106798 16.686903,3.7219141 17.284083,3.5536304 16.530802,1.8555105 16.00254,0.65726622 15.743061,0.12416035 l -6.4190862,0 C 8.7889934,1.368074 6.7932806,5.6329209 4.4600384,11.319384 l 2.3608096,0 c 0.3837048,0 0.5765048,-0.08068 0.7257138,-0.210933 M -3.4459344e-5,24.64703 l 5.727659759344,0 1.8533958,-5.864165 -5.5875825,0 C 1.3597312,20.559885 0.68898012,22.514606 -3.4459344e-5,24.64703 M 20.972267,15.930927 c -0.852008,1.421082 -2.066872,2.440736 -3.612373,3.120446 l 1.94523,5.595657 5.660981,0 c -1.132334,-3.376337 -2.344786,-6.694743 -3.484012,-9.70537 -0.158341,0.326972 -0.328226,0.686107 -0.509826,0.989267 M 18.54495,8.2092439 c -0.411272,-0.4239969 -0.411272,-1.1109927 0,-1.5349895 0.4111,-0.4216868 1.074615,-0.4216868 1.485887,0 0.4111,0.4239968 0.4111,1.1109926 0,1.5349895 -0.411272,0.4238191 -1.074787,0.4238191 -1.485887,0 m 1.357182,7.0629421 C 21.691261,12.29479 22.313597,7.5506804 22.313597,7.5506804 L 21.61993,7.2343709 C 21.530336,7.2036285 21.500528,7.1082025 21.590123,7.0134874 L 22.102189,6.358478 C 21.771551,5.7070226 20.625433,4.6498737 18.937615,4.6498737 c -1.001389,0 -1.878724,0.2743718 -2.664224,0.8049899 0,0 -1.145946,0.8003696 -2.813089,2.2877349 -1.919902,1.7150016 -4.5358833,4.3046525 -6.8922133,7.6632195 -0.064094,0.0924 0.011716,0.178412 0.1033781,0.178412 l 3.0431046,0 c 1.9888206,0 4.5817146,-0.339588 7.2640296,-3.26012 0.05961,-0.06397 0.11251,-0.05349 0.172124,-0.02043 0.0622,0.03074 0.06909,0.131677 0.03911,0.193162 -0.422472,1.056438 -1.476755,3.265095 -3.405789,4.509009 l 2.592721,0 c 1.690403,0 2.990209,-0.86914 3.525363,-1.73366"
         id="Fill-20"
         mask="none"
         inkscape:connector-curvature="0"
         style="fill:#e0001a;fill-rule:evenodd;stroke:none;stroke-width:1"
         transform="translate(0,0.053666)" />
      <path
         style="fill:#e0001a;fill-rule:evenodd;stroke:none;stroke-width:1"
         d="m 95.254982,9.5116392 c -2.448681,0 -3.856173,0.7543448 -4.883923,1.9397948 l -0.288942,-1.6778621 -3.800004,0 0,14.9269641 4.652012,0 0,-10.293563 c 0.51689,-0.498454 1.437988,-1.028539 2.285343,-1.028539 1.389918,0 2.194371,0.779223 2.194371,2.18218 l 0,9.139922 4.652011,0 0,-9.794932 c 0,-3.616234 -1.54619,-5.3939648 -4.810868,-5.3939648 z"
         id="path4253"
         inkscape:connector-curvature="0" />
      <path
         style="fill:#e0001a;fill-rule:evenodd;stroke:none;stroke-width:1"
         d="m 63.621649,9.5116392 c -1.93472,0 -3.184044,0.4684224 -4.217824,1.2785658 l 0,-6.5253937 -4.824308,0 0,20.4357247 4.652011,0 0,-10.293563 c 0.51689,-0.498454 1.438333,-1.028539 2.285344,-1.028539 1.390607,0 2.194371,0.779223 2.194371,2.18218 l 0,9.139922 4.824308,0 0,-9.794932 c 0,-3.616234 -1.619244,-5.3939648 -4.913902,-5.3939648 z"
         id="path4251"
         inkscape:connector-curvature="0" />
      <path
         style="fill:#e0001a;fill-rule:evenodd;stroke:none;stroke-width:1"
         d="m 49.16561,20.953335 c -2.327557,0 -3.537252,-1.495184 -3.537252,-3.772079 0,-2.18147 1.209695,-3.522053 3.506755,-3.522053 1.239675,0 2.237101,0.342076 3.113229,0.93489 l 0.665927,-4.084657 C 51.643753,9.9480752 50.28416,9.5116392 47.986755,9.5116392 c -4.684747,0 -7.254725,2.7749938 -7.254725,7.8574478 0,5.111952 2.418356,7.731101 7.13429,7.731101 2.266736,0 4.443877,-0.716495 5.349985,-1.340584 l -0.664893,-3.803532 c -1.058074,0.56136 -2.085824,0.997263 -3.385802,0.997263 z"
         id="path4249"
         inkscape:connector-curvature="0" />
      <path
         style="fill:#e0001a;fill-rule:evenodd;stroke:none;stroke-width:1"
         d="m 34.420801,20.205921 c -0.51689,0.498809 -1.438333,1.028716 -2.285172,1.028716 -1.389917,0 -2.194543,-0.779401 -2.194543,-2.18218 l 0,-9.2788851 -4.824308,0 0,9.9338951 c 0,3.616234 1.610802,5.392721 4.905805,5.392721 2.449197,0 3.888564,-0.823116 4.916486,-2.007855 l 0.321334,1.608203 3.812409,0 0,-14.9269641 -4.652011,0 0,10.4323491 z"
         id="Fill-25"
         inkscape:connector-curvature="0" />
    </g>
  </g>
</svg>
